<svg width="16" height="15" viewBox="0 0 16 15" fill="none" xmlns="http://www.w3.org/2000/svg">
<path d="M8.06894 15C8.01927 15 7.9696 15 7.91959 14.9998C6.74378 15.0026 5.65735 14.9728 4.60079 14.9084C3.63213 14.8495 2.74792 14.5148 2.04363 13.9405C1.36405 13.3864 0.899974 12.6371 0.664331 11.7138C0.459245 10.91 0.448373 10.1209 0.437958 9.3577C0.430405 8.8101 0.422623 8.16122 0.421021 7.50135C0.422623 6.83874 0.430405 6.18986 0.437958 5.64225C0.448373 4.87916 0.459245 4.09009 0.664331 3.28614C0.899974 2.36283 1.36405 1.61358 2.04363 1.05945C2.74792 0.485189 3.63213 0.150448 4.60091 0.0915109C5.65746 0.0273094 6.74412 -0.00267423 7.92245 0.000186801C9.09861 -0.00233091 10.1847 0.0273094 11.2413 0.0915109C12.2099 0.150448 13.0941 0.485189 13.7984 1.05945C14.4781 1.61358 14.9421 2.36283 15.1777 3.28614C15.3828 4.08997 15.3937 4.87916 15.4041 5.64225C15.4116 6.18986 15.4195 6.83874 15.421 7.49861V7.50135C15.4195 8.16122 15.4116 8.8101 15.4041 9.3577C15.3937 10.1208 15.3829 10.9099 15.1777 11.7138C14.9421 12.6371 14.4781 13.3864 13.7984 13.9405C13.0941 14.5148 12.2099 14.8495 11.2413 14.9084C10.2294 14.97 9.19005 15 8.06894 15ZM7.91959 13.8279C9.07629 13.8306 10.1383 13.8015 11.1701 13.7387C11.9025 13.6942 12.5376 13.4565 13.0578 13.0323C13.5387 12.6401 13.8699 12.099 14.0422 11.4241C14.2129 10.7549 14.2228 10.0365 14.2323 9.34168C14.2397 8.79774 14.2475 8.15344 14.2491 7.49998C14.2475 6.84641 14.2397 6.20222 14.2323 5.65828C14.2228 4.9635 14.2129 4.24504 14.0422 3.57579C13.8699 2.90081 13.5387 2.35974 13.0578 1.96755C12.5376 1.54343 11.9025 1.30573 11.1701 1.26121C10.1383 1.19839 9.07629 1.16943 7.92234 1.17195C6.76587 1.1692 5.7037 1.19839 4.67198 1.26121C3.93953 1.30573 3.30447 1.54343 2.7842 1.96755C2.3033 2.35974 1.9721 2.90081 1.79986 3.57579C1.6291 4.24504 1.61926 4.96339 1.60976 5.65828C1.60232 6.20267 1.59454 6.84732 1.59294 7.50135C1.59454 8.15252 1.60232 8.79729 1.60976 9.34168C1.61926 10.0365 1.6291 10.7549 1.79986 11.4241C1.9721 12.099 2.3033 12.6401 2.7842 13.0323C3.30447 13.4564 3.93953 13.6941 4.67198 13.7386C5.7037 13.8015 6.7661 13.8308 7.91959 13.8279ZM7.89167 11.1621C5.87239 11.1621 4.22942 9.51929 4.22942 7.49998C4.22942 5.48066 5.87239 3.83786 7.89167 3.83786C9.91105 3.83786 11.5539 5.48066 11.5539 7.49998C11.5539 9.51929 9.91105 11.1621 7.89167 11.1621ZM7.89167 5.00974C6.51855 5.00974 5.40134 6.12691 5.40134 7.49998C5.40134 8.87304 6.51855 9.99022 7.89167 9.99022C9.26489 9.99022 10.382 8.87304 10.382 7.49998C10.382 6.12691 9.26489 5.00974 7.89167 5.00974ZM11.9641 2.66598C11.4787 2.66598 11.0851 3.05943 11.0851 3.54489C11.0851 4.03035 11.4787 4.4238 11.9641 4.4238C12.4496 4.4238 12.843 4.03035 12.843 3.54489C12.843 3.05943 12.4496 2.66598 11.9641 2.66598Z" fill="#2E2520"/>
</svg>
